<svg xmlns="http://www.w3.org/2000/svg" width="300" height="150" viewBox="0 0 300 150"><defs><style>.cls-1{fill:#fff;}.cls-2,.cls-3{fill:none;stroke:#fff;}.cls-2{stroke-miterlimit:10;}.cls-3{stroke-linecap:round;stroke-linejoin:round;}</style></defs><title>JA_WhiteLogo_Small</title><g id="Layer_3" data-name="Layer 3"><path class="cls-1" d="M70.87,71.2a8.63,8.63,0,0,1-3.35-2.75l2.63-3.26a6.06,6.06,0,0,0,5,2.93q4.06,0,4.07-4.72V46.48H70.08v-4H84V63.14q0,4.52-2.2,6.76t-6.44,2.25A10.42,10.42,0,0,1,70.87,71.2Z"/><path class="cls-1" d="M104.8,62.37l2.42,2.82a8,8,0,0,1-3.3,2.38A13.19,13.19,0,0,1,93.7,67.1a9.33,9.33,0,0,1-3.79-3.57,10.13,10.13,0,0,1-1.34-5.19,10.3,10.3,0,0,1,1.3-5.14,9.26,9.26,0,0,1,3.59-3.57,11.11,11.11,0,0,1,10.18-.09,8.94,8.94,0,0,1,3.58,3.4,10,10,0,0,1,1.31,5.18l-15,2.93a5.07,5.07,0,0,0,2.23,2.57,7.39,7.39,0,0,0,3.7.88A7.21,7.21,0,0,0,104.8,62.37ZM94.56,53.66A6.17,6.17,0,0,0,93,58.09v0L104.07,56a5.17,5.17,0,0,0-1.93-2.89A5.55,5.55,0,0,0,98.65,52,5.36,5.36,0,0,0,94.56,53.66Z"/><path class="cls-1" d="M124.24,48.35V52.7a6,6,0,0,0-1.06-.1A5.51,5.51,0,0,0,119,54.15a6.21,6.21,0,0,0-1.5,4.49v9.48h-4.58V48.57h4.36v2.85Q119.26,48.35,124.24,48.35Z"/><path class="cls-1" d="M139.44,48.35V52.7a6,6,0,0,0-1.06-.1,5.51,5.51,0,0,0-4.17,1.55,6.17,6.17,0,0,0-1.51,4.49v9.48h-4.57V48.57h4.35v2.85Q134.46,48.35,139.44,48.35Z"/><path class="cls-1" d="M162.44,48.57V65.16q0,10.32-10.14,10.32a17.88,17.88,0,0,1-5.11-.71,10.71,10.71,0,0,1-4-2.07l2-3.44a9.18,9.18,0,0,0,3,1.68,11.3,11.3,0,0,0,3.77.63,5.94,5.94,0,0,0,4.41-1.45,6.17,6.17,0,0,0,1.41-4.45v-.92a7.09,7.09,0,0,1-2.67,1.85,8.88,8.88,0,0,1-3.41.64,8.56,8.56,0,0,1-6.17-2.16q-2.25-2.16-2.25-6.48v-10h4.58V58a5.63,5.63,0,0,0,1.19,3.9,4.38,4.38,0,0,0,3.39,1.3,5.15,5.15,0,0,0,3.9-1.51,6,6,0,0,0,1.44-4.35V48.57Z"/><path class="cls-1" d="M196.17,43.48a9.37,9.37,0,0,1,4,4,13.53,13.53,0,0,1,1.41,6.42V68.12h-4.76V61.53H183.46v6.59h-4.69V53.91a13.53,13.53,0,0,1,1.41-6.42,9.39,9.39,0,0,1,4-4,13.94,13.94,0,0,1,12,0Zm.62,14.06V53.47A7.43,7.43,0,0,0,195,48.11a7.56,7.56,0,0,0-9.82,0,7.43,7.43,0,0,0-1.76,5.36v4.07Z"/><path class="cls-1" d="M226.93,41V68.12h-4.39V65.6a7.13,7.13,0,0,1-2.8,2.08,9.39,9.39,0,0,1-3.68.7A10.34,10.34,0,0,1,211,67.13a8.88,8.88,0,0,1-3.53-3.53,10.54,10.54,0,0,1-1.28-5.26,10.4,10.4,0,0,1,1.28-5.23A8.92,8.92,0,0,1,211,49.59a10.33,10.33,0,0,1,5.08-1.24,9.31,9.31,0,0,1,3.55.66,7,7,0,0,1,2.74,2V41Zm-7.36,22.76a5.38,5.38,0,0,0,2.09-2.14,7.14,7.14,0,0,0,0-6.45A5.38,5.38,0,0,0,219.57,53a6.24,6.24,0,0,0-5.93,0,5.38,5.38,0,0,0-2.09,2.14,7.14,7.14,0,0,0,0,6.45,5.38,5.38,0,0,0,2.09,2.14,6.24,6.24,0,0,0,5.93,0Z"/><path class="cls-1" d="M252.09,41V68.12H247.7V65.6a7.09,7.09,0,0,1-2.81,2.08,9.32,9.32,0,0,1-3.68.7,10.3,10.3,0,0,1-5.07-1.25,8.88,8.88,0,0,1-3.53-3.53,10.54,10.54,0,0,1-1.28-5.26,10.4,10.4,0,0,1,1.28-5.23,8.92,8.92,0,0,1,3.53-3.52,10.29,10.29,0,0,1,5.07-1.24,9.33,9.33,0,0,1,3.56.66,7,7,0,0,1,2.74,2V41Zm-7.36,22.76a5.38,5.38,0,0,0,2.09-2.14,7.14,7.14,0,0,0,0-6.45A5.38,5.38,0,0,0,244.73,53a6.24,6.24,0,0,0-5.93,0,5.38,5.38,0,0,0-2.09,2.14,7.14,7.14,0,0,0,0,6.45,5.38,5.38,0,0,0,2.09,2.14,6.24,6.24,0,0,0,5.93,0Z"/><path class="cls-1" d="M272.71,62.37l2.42,2.82a8,8,0,0,1-3.3,2.38,13.19,13.19,0,0,1-10.22-.47,9.33,9.33,0,0,1-3.79-3.57,10.8,10.8,0,0,1,0-10.33,9.17,9.17,0,0,1,3.58-3.57,11.13,11.13,0,0,1,10.19-.09,9,9,0,0,1,3.57,3.4,10,10,0,0,1,1.31,5.18l-15,2.93a5.11,5.11,0,0,0,2.23,2.57,7.42,7.42,0,0,0,3.7.88A7.21,7.21,0,0,0,272.71,62.37Zm-10.24-8.71a6.21,6.21,0,0,0-1.55,4.43v0L272,56a5.17,5.17,0,0,0-1.93-2.89,5.55,5.55,0,0,0-3.49-1.1A5.36,5.36,0,0,0,262.47,53.66Z"/><path class="cls-1" d="M292.16,48.35V52.7a6.17,6.17,0,0,0-1.07-.1,5.51,5.51,0,0,0-4.17,1.55,6.21,6.21,0,0,0-1.5,4.49v9.48h-4.58V48.57h4.36v2.85Q287.18,48.35,292.16,48.35Z"/><line class="cls-2" x1="76.32" y1="79.87" x2="280.82" y2="79.87"/><path class="cls-1" d="M82.2,88.93a5.32,5.32,0,0,1,1.86,4.3,5.27,5.27,0,0,1-1.86,4.28,7.74,7.74,0,0,1-5.13,1.55H72.48v5.4h-1.8V87.37h6.39A7.74,7.74,0,0,1,82.2,88.93Zm-1.29,7.44a3.86,3.86,0,0,0,1.34-3.14A3.93,3.93,0,0,0,80.91,90,6,6,0,0,0,77,88.93H72.48v8.55H77A6,6,0,0,0,80.91,96.37Z"/><path class="cls-1" d="M99.24,91.62v12.84H97.58v-2.54a5.36,5.36,0,0,1-2.06,2,6.13,6.13,0,0,1-2.89.68,6.48,6.48,0,0,1-3.28-.83,5.87,5.87,0,0,1-2.29-2.32,7.34,7.34,0,0,1,0-6.78,5.79,5.79,0,0,1,2.29-2.31,6.57,6.57,0,0,1,3.28-.82,6.1,6.1,0,0,1,2.82.65,5.4,5.4,0,0,1,2.06,1.89V91.62Zm-4,10.8a4.29,4.29,0,0,0,1.71-1.77,5.8,5.8,0,0,0,0-5.22,4.29,4.29,0,0,0-1.71-1.77,5,5,0,0,0-4.88,0,4.29,4.29,0,0,0-1.71,1.77,5.8,5.8,0,0,0,0,5.22,4.29,4.29,0,0,0,1.71,1.77,4.77,4.77,0,0,0,2.45.62A4.73,4.73,0,0,0,95.2,102.42Z"/><path class="cls-1" d="M104.05,88.44a1.2,1.2,0,0,1-.37-.88,1.18,1.18,0,0,1,.37-.85,1.3,1.3,0,0,1,1.81,0,1.12,1.12,0,0,1,.36.84,1.27,1.27,0,0,1-2.17.9Zm0,3.18h1.73v12.84h-1.73Z"/><path class="cls-1" d="M121,92.92A5.5,5.5,0,0,1,122.46,97v7.45h-1.73V97.18a4.25,4.25,0,0,0-1-3.05,3.73,3.73,0,0,0-2.85-1,4.33,4.33,0,0,0-3.28,1.24,4.62,4.62,0,0,0-1.21,3.4v6.74h-1.74V91.62h1.66V94a4.75,4.75,0,0,1,2-1.82,6.31,6.31,0,0,1,2.92-.65A5.26,5.26,0,0,1,121,92.92Z"/><path class="cls-1" d="M133.49,103.68a3.36,3.36,0,0,1-1.19.67,4.89,4.89,0,0,1-1.49.23,3.4,3.4,0,0,1-3.76-3.73v-12h1.73v2.81h3.88v1.46h-3.88v7.67a2.46,2.46,0,0,0,.56,1.74,2.14,2.14,0,0,0,1.64.6,2.71,2.71,0,0,0,1.9-.66Z"/><path class="cls-1" d="M143.88,102.62a4.6,4.6,0,0,0,1.72-1.26l1,1.12a5.4,5.4,0,0,1-2.12,1.56,7.15,7.15,0,0,1-2.81.54,7.24,7.24,0,0,1-3.52-.84,6.09,6.09,0,0,1-2.39-2.33,6.67,6.67,0,0,1-.85-3.37,6.94,6.94,0,0,1,.81-3.37A5.93,5.93,0,0,1,138,92.35a6.46,6.46,0,0,1,3.27-.83,6.17,6.17,0,0,1,3.09.78,6,6,0,0,1,2.2,2.17,6.68,6.68,0,0,1,.87,3.18l-10.55,2a4.52,4.52,0,0,0,1.77,2.45,5.16,5.16,0,0,0,3.06.89A5.69,5.69,0,0,0,143.88,102.62Zm-5-9a4.39,4.39,0,0,0-1.66,1.73,5.35,5.35,0,0,0-.6,2.56,3.33,3.33,0,0,0,0,.53l9.05-1.75a4.4,4.4,0,0,0-1.49-2.65,4.3,4.3,0,0,0-2.93-1A4.71,4.71,0,0,0,138.83,93.63Z"/><path class="cls-1" d="M154.41,92.18a6.15,6.15,0,0,1,3-.66V93.2l-.42,0a4.09,4.09,0,0,0-3.17,1.25,4.93,4.93,0,0,0-1.15,3.49v6.54h-1.73V91.62h1.66v2.51A4.15,4.15,0,0,1,154.41,92.18Z"/><path class="cls-1" d="M179.71,104.73l-2.37-2.44a7.48,7.48,0,0,1-5.71,2.32,7.71,7.71,0,0,1-3-.55,4.81,4.81,0,0,1-2-1.54,3.75,3.75,0,0,1-.73-2.26,4.32,4.32,0,0,1,1-2.76,11.77,11.77,0,0,1,3.32-2.56,10.57,10.57,0,0,1-1.69-2.16,4.06,4.06,0,0,1-.46-1.89,3.3,3.3,0,0,1,1.17-2.64,4.67,4.67,0,0,1,3.15-1,4.4,4.4,0,0,1,2.91.9,3.09,3.09,0,0,1,1.07,2.49,3.42,3.42,0,0,1-.85,2.28,11.61,11.61,0,0,1-3,2.24l4.69,4.83a11.07,11.07,0,0,0,1.15-3.29l1.41.44a11.39,11.39,0,0,1-1.51,3.93l2.44,2.51Zm-3.39-3.49-5.15-5.3a10.29,10.29,0,0,0-2.8,2.07,3.19,3.19,0,0,0-.77,2.08,2.63,2.63,0,0,0,1.14,2.23,4.89,4.89,0,0,0,3,.85A6,6,0,0,0,176.32,101.24Zm-5.95-12.06a2.12,2.12,0,0,0-.72,1.68A2.86,2.86,0,0,0,170,92.3a10.44,10.44,0,0,0,1.54,1.86,11.94,11.94,0,0,0,2.56-1.83,2.36,2.36,0,0,0,.71-1.66,2,2,0,0,0-.66-1.56,2.71,2.71,0,0,0-1.83-.57A2.87,2.87,0,0,0,170.37,89.18Z"/><path class="cls-1" d="M191.27,104a6.79,6.79,0,0,1-2.7-1.62l.71-1.39a6.72,6.72,0,0,0,2.47,1.5,8.81,8.81,0,0,0,3.17.58,5.8,5.8,0,0,0,3.44-.84,2.6,2.6,0,0,0,1.15-2.19,2.22,2.22,0,0,0-.62-1.64,4.3,4.3,0,0,0-1.53-.94c-.6-.22-1.44-.45-2.51-.72a24,24,0,0,1-3.08-.94,5.09,5.09,0,0,1-2-1.37,3.66,3.66,0,0,1-.82-2.52,4.33,4.33,0,0,1,.68-2.36,4.75,4.75,0,0,1,2.1-1.69,8.52,8.52,0,0,1,3.52-.64,10.37,10.37,0,0,1,2.87.41,8,8,0,0,1,2.43,1.11L200,90.18a8.25,8.25,0,0,0-2.29-1.07,8.75,8.75,0,0,0-2.39-.35,5.48,5.48,0,0,0-3.38.87,2.68,2.68,0,0,0-1.14,2.23,2.25,2.25,0,0,0,.62,1.65,4.18,4.18,0,0,0,1.57.95c.62.22,1.47.46,2.52.72a25.12,25.12,0,0,1,3,.92,5,5,0,0,1,2,1.36,3.66,3.66,0,0,1,.8,2.48,4.23,4.23,0,0,1-.69,2.36,4.67,4.67,0,0,1-2.14,1.68,8.83,8.83,0,0,1-3.54.63A11.14,11.14,0,0,1,191.27,104Z"/><path class="cls-1" d="M206.77,103.75a6,6,0,0,1-2.35-2.33,7.05,7.05,0,0,1,0-6.75,6,6,0,0,1,2.35-2.32,7,7,0,0,1,3.41-.83,6.62,6.62,0,0,1,3,.65,4.88,4.88,0,0,1,2.06,1.89l-1.29.88a4,4,0,0,0-1.62-1.43,4.74,4.74,0,0,0-2.12-.48,5,5,0,0,0-2.5.63,4.36,4.36,0,0,0-1.74,1.77,5.82,5.82,0,0,0,0,5.23,4.4,4.4,0,0,0,1.74,1.76,5,5,0,0,0,2.5.62,4.87,4.87,0,0,0,2.12-.46,3.94,3.94,0,0,0,1.62-1.42l1.29.88a4.88,4.88,0,0,1-2.08,1.89,6.46,6.46,0,0,1-2.95.65A6.89,6.89,0,0,1,206.77,103.75Z"/><path class="cls-1" d="M230.18,91.62v12.84h-1.67v-2.34a4.72,4.72,0,0,1-1.87,1.81,5.58,5.58,0,0,1-2.74.65,5,5,0,0,1-5.42-5.52V91.62h1.73v7.27a4.3,4.3,0,0,0,1,3.08,3.73,3.73,0,0,0,2.85,1,4.21,4.21,0,0,0,3.2-1.23,4.8,4.8,0,0,0,1.17-3.43V91.62Z"/><path class="cls-1" d="M236,103.61a3.8,3.8,0,0,1-.94-2.71V86.34h1.74v14.41a2.55,2.55,0,0,0,.53,1.74,2.07,2.07,0,0,0,1.62.6,2.81,2.81,0,0,0,1.17-.22l.12,1.44a4.66,4.66,0,0,1-1.56.27A3.55,3.55,0,0,1,236,103.61Z"/><path class="cls-1" d="M252.47,92.34a5.79,5.79,0,0,1,2.29,2.31,6.86,6.86,0,0,1,.83,3.39,7,7,0,0,1-.83,3.42,5.8,5.8,0,0,1-2.28,2.3,6.56,6.56,0,0,1-3.29.82,6,6,0,0,1-2.82-.65,5.4,5.4,0,0,1-2.06-1.89v7.16h-1.73V91.62h1.66v2.54a5.38,5.38,0,0,1,2.06-2,6.13,6.13,0,0,1,2.89-.68A6.57,6.57,0,0,1,252.47,92.34Zm-1,10.08a4.26,4.26,0,0,0,1.72-1.77,5.31,5.31,0,0,0,.63-2.61,5.24,5.24,0,0,0-.63-2.6,4.38,4.38,0,0,0-1.72-1.77,5,5,0,0,0-4.89,0,4.42,4.42,0,0,0-1.71,1.77,5.24,5.24,0,0,0-.62,2.6,5.3,5.3,0,0,0,.62,2.61,4.29,4.29,0,0,0,1.71,1.77,5.13,5.13,0,0,0,4.89,0Z"/><path class="cls-1" d="M265.45,103.68a3.36,3.36,0,0,1-1.19.67,4.89,4.89,0,0,1-1.49.23,3.4,3.4,0,0,1-3.76-3.73v-12h1.73v2.81h3.88v1.46h-3.88v7.67a2.46,2.46,0,0,0,.56,1.74,2.14,2.14,0,0,0,1.64.6,2.71,2.71,0,0,0,1.9-.66Z"/><path class="cls-1" d="M270,103.74a6.16,6.16,0,0,1-2.34-2.33,7.11,7.11,0,0,1,0-6.74A6.07,6.07,0,0,1,270,92.35a7.16,7.16,0,0,1,6.69,0,6,6,0,0,1,2.34,2.32,7.18,7.18,0,0,1,0,6.74,6.09,6.09,0,0,1-2.34,2.33,7.08,7.08,0,0,1-6.69,0Zm5.8-1.32a4.27,4.27,0,0,0,1.7-1.77,5.89,5.89,0,0,0,0-5.22,4.27,4.27,0,0,0-1.7-1.77,5.08,5.08,0,0,0-4.9,0,4.29,4.29,0,0,0-1.71,1.77,5.72,5.72,0,0,0,0,5.22,4.29,4.29,0,0,0,1.71,1.77,5.15,5.15,0,0,0,4.9,0Z"/><path class="cls-1" d="M286.93,92.18a6.15,6.15,0,0,1,3-.66V93.2l-.42,0a4.09,4.09,0,0,0-3.17,1.25,4.93,4.93,0,0,0-1.15,3.49v6.54h-1.73V91.62h1.66v2.51A4.15,4.15,0,0,1,286.93,92.18Z"/><path class="cls-3" d="M33.73,22.72s5.71-.25,5.75,5.73c-.07,2.92-1.56,5.24,1.23,5.44,0,0,5.74.67,6.22,5.57L48,44.77s.71,2.84.91,3.62a24.75,24.75,0,0,0,1.53,4.23c1,2,1.79,1.83,3.19,2.42,2.55,1.07,3.83,2.36,4.22,4.57S57.27,63.47,56,65c-2.06,2.5-8,6.52-9.1,8.15a36.45,36.45,0,0,0-3,5.67l.39,4c.23,1.64,1.15,4.78.42,6.28s-.41,1-1.21,1.78-1.75.94-1.66,1.78,2.79,2.5,2.79,2.5,6.06,2.22,7,4.39.46,25.77.46,25.77a7.56,7.56,0,0,1-2.93,3.22c-2.09,1.23-13,6.28-13,6.28a4.18,4.18,0,0,1-3.17,0c-2-.85-14.31-7.72-14.31-7.72a3.43,3.43,0,0,1-1.31-3.25S17.33,103,17.47,101s4.05-4.28,5.13-4.88,2.95-1,3.95-1.48A4,4,0,0,0,28.4,93c.41-.66-.35-3.31-.39-5.84s1.28-7.44,1.7-8.78,0-7.46,0-7.46-.08-9.18,0-10.6,1.67-3.47,2.05-4.12-.28-2.67-.64-3.31c0,0-5-10-5.4-11.06-.44-1.34-1.81-12.68-1.81-12.68a44.07,44.07,0,0,1-.31-6.36c.22-2.63.18-4.88,2.33-5.81,1.67-.3,2.66.07,4.71,7"/><path class="cls-3" d="M41.33,66.69c1.74-2.34,11.27-4.68,7.47-5.6"/><path class="cls-3" d="M30.77,31.66c-1.37-5.11-.68-8.91,2.64-8.91"/><polyline class="cls-3" points="34.54 135.13 34.54 107.59 17.61 100.44"/><line class="cls-3" x1="51.88" y1="101.32" x2="34.54" y2="107.59"/></g></svg>
